<svg width="21" height="23" viewBox="0 0 21 23" fill="none" xmlns="http://www.w3.org/2000/svg">
<path d="M15.5024 5.05016C15.9873 6.14107 16.2903 7.35319 16.2903 8.59562C16.2903 8.62592 16.2903 8.68653 16.2903 8.71683L20.4115 5.05016V0.686523L15.5024 5.05016Z" fill="#0DB9CB"/>
<path d="M14.987 8.62589C14.987 4.26225 11.0779 0.716797 6.29004 0.716797V3.98952C9.22943 3.98952 11.6234 5.98952 11.7143 8.47437L9.50216 10.4441C10.0779 11.4744 10.4719 12.6259 10.6234 13.838L12.5931 12.0804C13.987 14.7471 16.987 16.5653 20.4415 16.5653V13.2926C17.4112 13.2623 14.987 11.1713 14.987 8.62589Z" fill="#0DB9CB"/>
<path d="M14.775 22.6258V19.3531C11.775 19.3531 9.35078 17.2622 9.35078 14.7167C9.35078 10.3531 5.44169 6.80762 0.653809 6.80762V10.0803C3.19926 10.0803 5.35078 11.5955 5.92653 13.6258L4.77502 14.6561L2.41138 16.7773L0.653809 18.3228V22.6864L6.5932 17.4137C7.77502 20.4137 10.9871 22.6258 14.775 22.6258Z" fill="#0DB9CB"/>
</svg>
